<svg xmlns="http://www.w3.org/2000/svg" xmlns:xlink="http://www.w3.org/1999/xlink" viewBox="0 0 250 250" width="250" height="250" >
    
    <clipPath id="clipz12z894">
      






<circle cx="97.22222222222224" cy="13.88888888888889" r="3.0864197530864197" fill="black" />
<circle cx="106.48148148148148" cy="13.88888888888889" r="3.0864197530864197" fill="black" />
<circle cx="115.74074074074075" cy="13.88888888888889" r="3.0864197530864197" fill="black" />









<circle cx="106.48148148148148" cy="23.14814814814815" r="3.0864197530864197" fill="black" />
<circle cx="125.00000000000001" cy="23.14814814814815" r="3.0864197530864197" fill="black" />
<circle cx="134.25925925925927" cy="23.14814814814815" r="3.0864197530864197" fill="black" />
<circle cx="162.03703703703704" cy="23.14814814814815" r="3.0864197530864197" fill="black" />







<circle cx="87.96296296296298" cy="32.407407407407405" r="3.0864197530864197" fill="black" />
<circle cx="115.74074074074075" cy="32.407407407407405" r="3.0864197530864197" fill="black" />










<circle cx="87.96296296296298" cy="41.66666666666667" r="3.0864197530864197" fill="black" />
<circle cx="97.22222222222224" cy="41.66666666666667" r="3.0864197530864197" fill="black" />
<circle cx="125.00000000000001" cy="41.66666666666667" r="3.0864197530864197" fill="black" />
<circle cx="152.77777777777777" cy="41.66666666666667" r="3.0864197530864197" fill="black" />
<circle cx="162.03703703703704" cy="41.66666666666667" r="3.0864197530864197" fill="black" />










<circle cx="97.22222222222224" cy="50.925925925925924" r="3.0864197530864197" fill="black" />
<circle cx="106.48148148148148" cy="50.925925925925924" r="3.0864197530864197" fill="black" />
<circle cx="115.74074074074075" cy="50.925925925925924" r="3.0864197530864197" fill="black" />
<circle cx="125.00000000000001" cy="50.925925925925924" r="3.0864197530864197" fill="black" />
<circle cx="152.77777777777777" cy="50.925925925925924" r="3.0864197530864197" fill="black" />







<circle cx="134.25925925925927" cy="60.18518518518519" r="3.0864197530864197" fill="black" />
<circle cx="162.03703703703704" cy="60.18518518518519" r="3.0864197530864197" fill="black" />









<circle cx="87.96296296296298" cy="69.44444444444444" r="3.0864197530864197" fill="black" />
<circle cx="106.48148148148148" cy="69.44444444444444" r="3.0864197530864197" fill="black" />
<circle cx="125.00000000000001" cy="69.44444444444444" r="3.0864197530864197" fill="black" />
<circle cx="143.5185185185185" cy="69.44444444444444" r="3.0864197530864197" fill="black" />
<circle cx="162.03703703703704" cy="69.44444444444444" r="3.0864197530864197" fill="black" />







<circle cx="97.22222222222224" cy="78.70370370370371" r="3.0864197530864197" fill="black" />
<circle cx="106.48148148148148" cy="78.70370370370371" r="3.0864197530864197" fill="black" />
<circle cx="134.25925925925927" cy="78.70370370370371" r="3.0864197530864197" fill="black" />
<circle cx="41.66666666666667" cy="87.96296296296298" r="3.0864197530864197" fill="black" />
<circle cx="50.925925925925924" cy="87.96296296296298" r="3.0864197530864197" fill="black" />
<circle cx="69.44444444444444" cy="87.96296296296298" r="3.0864197530864197" fill="black" />
<circle cx="78.70370370370371" cy="87.96296296296298" r="3.0864197530864197" fill="black" />
<circle cx="106.48148148148148" cy="87.96296296296298" r="3.0864197530864197" fill="black" />
<circle cx="115.74074074074075" cy="87.96296296296298" r="3.0864197530864197" fill="black" />
<circle cx="143.5185185185185" cy="87.96296296296298" r="3.0864197530864197" fill="black" />
<circle cx="162.03703703703704" cy="87.96296296296298" r="3.0864197530864197" fill="black" />
<circle cx="208.33333333333334" cy="87.96296296296298" r="3.0864197530864197" fill="black" />
<circle cx="217.59259259259258" cy="87.96296296296298" r="3.0864197530864197" fill="black" />
<circle cx="60.18518518518519" cy="97.22222222222224" r="3.0864197530864197" fill="black" />
<circle cx="97.22222222222224" cy="97.22222222222224" r="3.0864197530864197" fill="black" />
<circle cx="171.2962962962963" cy="97.22222222222224" r="3.0864197530864197" fill="black" />
<circle cx="189.8148148148148" cy="97.22222222222224" r="3.0864197530864197" fill="black" />
<circle cx="199.07407407407408" cy="97.22222222222224" r="3.0864197530864197" fill="black" />
<circle cx="13.88888888888889" cy="106.48148148148148" r="3.0864197530864197" fill="black" />
<circle cx="23.14814814814815" cy="106.48148148148148" r="3.0864197530864197" fill="black" />
<circle cx="32.407407407407405" cy="106.48148148148148" r="3.0864197530864197" fill="black" />
<circle cx="60.18518518518519" cy="106.48148148148148" r="3.0864197530864197" fill="black" />
<circle cx="69.44444444444444" cy="106.48148148148148" r="3.0864197530864197" fill="black" />
<circle cx="87.96296296296298" cy="106.48148148148148" r="3.0864197530864197" fill="black" />
<circle cx="106.48148148148148" cy="106.48148148148148" r="3.0864197530864197" fill="black" />
<circle cx="115.74074074074075" cy="106.48148148148148" r="3.0864197530864197" fill="black" />
<circle cx="171.2962962962963" cy="106.48148148148148" r="3.0864197530864197" fill="black" />
<circle cx="208.33333333333334" cy="106.48148148148148" r="3.0864197530864197" fill="black" />
<circle cx="236.11111111111111" cy="106.48148148148148" r="3.0864197530864197" fill="black" />
<circle cx="23.14814814814815" cy="115.74074074074075" r="3.0864197530864197" fill="black" />
<circle cx="50.925925925925924" cy="115.74074074074075" r="3.0864197530864197" fill="black" />
<circle cx="60.18518518518519" cy="115.74074074074075" r="3.0864197530864197" fill="black" />
<circle cx="97.22222222222224" cy="115.74074074074075" r="3.0864197530864197" fill="black" />
<circle cx="106.48148148148148" cy="115.74074074074075" r="3.0864197530864197" fill="black" />
<circle cx="125.00000000000001" cy="115.74074074074075" r="3.0864197530864197" fill="black" />
<circle cx="134.25925925925927" cy="115.74074074074075" r="3.0864197530864197" fill="black" />
<circle cx="143.5185185185185" cy="115.74074074074075" r="3.0864197530864197" fill="black" />
<circle cx="171.2962962962963" cy="115.74074074074075" r="3.0864197530864197" fill="black" />
<circle cx="180.55555555555557" cy="115.74074074074075" r="3.0864197530864197" fill="black" />
<circle cx="217.59259259259258" cy="115.74074074074075" r="3.0864197530864197" fill="black" />
<circle cx="226.85185185185185" cy="115.74074074074075" r="3.0864197530864197" fill="black" />
<circle cx="236.11111111111111" cy="115.74074074074075" r="3.0864197530864197" fill="black" />
<circle cx="23.14814814814815" cy="125.00000000000001" r="3.0864197530864197" fill="black" />
<circle cx="69.44444444444444" cy="125.00000000000001" r="3.0864197530864197" fill="black" />
<circle cx="87.96296296296298" cy="125.00000000000001" r="3.0864197530864197" fill="black" />
<circle cx="97.22222222222224" cy="125.00000000000001" r="3.0864197530864197" fill="black" />
<circle cx="106.48148148148148" cy="125.00000000000001" r="3.0864197530864197" fill="black" />
<circle cx="115.74074074074075" cy="125.00000000000001" r="3.0864197530864197" fill="black" />
<circle cx="134.25925925925927" cy="125.00000000000001" r="3.0864197530864197" fill="black" />
<circle cx="152.77777777777777" cy="125.00000000000001" r="3.0864197530864197" fill="black" />
<circle cx="171.2962962962963" cy="125.00000000000001" r="3.0864197530864197" fill="black" />
<circle cx="180.55555555555557" cy="125.00000000000001" r="3.0864197530864197" fill="black" />
<circle cx="189.8148148148148" cy="125.00000000000001" r="3.0864197530864197" fill="black" />
<circle cx="208.33333333333334" cy="125.00000000000001" r="3.0864197530864197" fill="black" />
<circle cx="236.11111111111111" cy="125.00000000000001" r="3.0864197530864197" fill="black" />
<circle cx="13.88888888888889" cy="134.25925925925927" r="3.0864197530864197" fill="black" />
<circle cx="50.925925925925924" cy="134.25925925925927" r="3.0864197530864197" fill="black" />
<circle cx="60.18518518518519" cy="134.25925925925927" r="3.0864197530864197" fill="black" />
<circle cx="78.70370370370371" cy="134.25925925925927" r="3.0864197530864197" fill="black" />
<circle cx="87.96296296296298" cy="134.25925925925927" r="3.0864197530864197" fill="black" />
<circle cx="97.22222222222224" cy="134.25925925925927" r="3.0864197530864197" fill="black" />
<circle cx="143.5185185185185" cy="134.25925925925927" r="3.0864197530864197" fill="black" />
<circle cx="171.2962962962963" cy="134.25925925925927" r="3.0864197530864197" fill="black" />
<circle cx="199.07407407407408" cy="134.25925925925927" r="3.0864197530864197" fill="black" />
<circle cx="208.33333333333334" cy="134.25925925925927" r="3.0864197530864197" fill="black" />
<circle cx="217.59259259259258" cy="134.25925925925927" r="3.0864197530864197" fill="black" />
<circle cx="226.85185185185185" cy="134.25925925925927" r="3.0864197530864197" fill="black" />
<circle cx="13.88888888888889" cy="143.5185185185185" r="3.0864197530864197" fill="black" />
<circle cx="23.14814814814815" cy="143.5185185185185" r="3.0864197530864197" fill="black" />
<circle cx="60.18518518518519" cy="143.5185185185185" r="3.0864197530864197" fill="black" />
<circle cx="69.44444444444444" cy="143.5185185185185" r="3.0864197530864197" fill="black" />
<circle cx="87.96296296296298" cy="143.5185185185185" r="3.0864197530864197" fill="black" />
<circle cx="97.22222222222224" cy="143.5185185185185" r="3.0864197530864197" fill="black" />
<circle cx="125.00000000000001" cy="143.5185185185185" r="3.0864197530864197" fill="black" />
<circle cx="134.25925925925927" cy="143.5185185185185" r="3.0864197530864197" fill="black" />
<circle cx="152.77777777777777" cy="143.5185185185185" r="3.0864197530864197" fill="black" />
<circle cx="208.33333333333334" cy="143.5185185185185" r="3.0864197530864197" fill="black" />
<circle cx="226.85185185185185" cy="143.5185185185185" r="3.0864197530864197" fill="black" />
<circle cx="236.11111111111111" cy="143.5185185185185" r="3.0864197530864197" fill="black" />
<circle cx="13.88888888888889" cy="152.77777777777777" r="3.0864197530864197" fill="black" />
<circle cx="32.407407407407405" cy="152.77777777777777" r="3.0864197530864197" fill="black" />
<circle cx="115.74074074074075" cy="152.77777777777777" r="3.0864197530864197" fill="black" />
<circle cx="134.25925925925927" cy="152.77777777777777" r="3.0864197530864197" fill="black" />
<circle cx="143.5185185185185" cy="152.77777777777777" r="3.0864197530864197" fill="black" />
<circle cx="162.03703703703704" cy="152.77777777777777" r="3.0864197530864197" fill="black" />
<circle cx="180.55555555555557" cy="152.77777777777777" r="3.0864197530864197" fill="black" />
<circle cx="189.8148148148148" cy="152.77777777777777" r="3.0864197530864197" fill="black" />
<circle cx="199.07407407407408" cy="152.77777777777777" r="3.0864197530864197" fill="black" />
<circle cx="208.33333333333334" cy="152.77777777777777" r="3.0864197530864197" fill="black" />
<circle cx="217.59259259259258" cy="152.77777777777777" r="3.0864197530864197" fill="black" />
<circle cx="236.11111111111111" cy="152.77777777777777" r="3.0864197530864197" fill="black" />
<circle cx="13.88888888888889" cy="162.03703703703704" r="3.0864197530864197" fill="black" />
<circle cx="32.407407407407405" cy="162.03703703703704" r="3.0864197530864197" fill="black" />
<circle cx="41.66666666666667" cy="162.03703703703704" r="3.0864197530864197" fill="black" />
<circle cx="50.925925925925924" cy="162.03703703703704" r="3.0864197530864197" fill="black" />
<circle cx="60.18518518518519" cy="162.03703703703704" r="3.0864197530864197" fill="black" />
<circle cx="69.44444444444444" cy="162.03703703703704" r="3.0864197530864197" fill="black" />
<circle cx="125.00000000000001" cy="162.03703703703704" r="3.0864197530864197" fill="black" />
<circle cx="143.5185185185185" cy="162.03703703703704" r="3.0864197530864197" fill="black" />
<circle cx="152.77777777777777" cy="162.03703703703704" r="3.0864197530864197" fill="black" />
<circle cx="162.03703703703704" cy="162.03703703703704" r="3.0864197530864197" fill="black" />
<circle cx="171.2962962962963" cy="162.03703703703704" r="3.0864197530864197" fill="black" />
<circle cx="180.55555555555557" cy="162.03703703703704" r="3.0864197530864197" fill="black" />
<circle cx="189.8148148148148" cy="162.03703703703704" r="3.0864197530864197" fill="black" />
<circle cx="199.07407407407408" cy="162.03703703703704" r="3.0864197530864197" fill="black" />
<circle cx="208.33333333333334" cy="162.03703703703704" r="3.0864197530864197" fill="black" />
<circle cx="217.59259259259258" cy="162.03703703703704" r="3.0864197530864197" fill="black" />
<circle cx="226.85185185185185" cy="162.03703703703704" r="3.0864197530864197" fill="black" />
<circle cx="87.96296296296298" cy="171.2962962962963" r="3.0864197530864197" fill="black" />
<circle cx="97.22222222222224" cy="171.2962962962963" r="3.0864197530864197" fill="black" />
<circle cx="106.48148148148148" cy="171.2962962962963" r="3.0864197530864197" fill="black" />
<circle cx="143.5185185185185" cy="171.2962962962963" r="3.0864197530864197" fill="black" />
<circle cx="162.03703703703704" cy="171.2962962962963" r="3.0864197530864197" fill="black" />
<circle cx="199.07407407407408" cy="171.2962962962963" r="3.0864197530864197" fill="black" />







<circle cx="87.96296296296298" cy="180.55555555555557" r="3.0864197530864197" fill="black" />
<circle cx="106.48148148148148" cy="180.55555555555557" r="3.0864197530864197" fill="black" />
<circle cx="134.25925925925927" cy="180.55555555555557" r="3.0864197530864197" fill="black" />
<circle cx="152.77777777777777" cy="180.55555555555557" r="3.0864197530864197" fill="black" />
<circle cx="162.03703703703704" cy="180.55555555555557" r="3.0864197530864197" fill="black" />
<circle cx="180.55555555555557" cy="180.55555555555557" r="3.0864197530864197" fill="black" />
<circle cx="199.07407407407408" cy="180.55555555555557" r="3.0864197530864197" fill="black" />
<circle cx="217.59259259259258" cy="180.55555555555557" r="3.0864197530864197" fill="black" />
<circle cx="226.85185185185185" cy="180.55555555555557" r="3.0864197530864197" fill="black" />
<circle cx="236.11111111111111" cy="180.55555555555557" r="3.0864197530864197" fill="black" />


<circle cx="97.22222222222224" cy="189.8148148148148" r="3.0864197530864197" fill="black" />
<circle cx="125.00000000000001" cy="189.8148148148148" r="3.0864197530864197" fill="black" />
<circle cx="152.77777777777777" cy="189.8148148148148" r="3.0864197530864197" fill="black" />
<circle cx="162.03703703703704" cy="189.8148148148148" r="3.0864197530864197" fill="black" />
<circle cx="199.07407407407408" cy="189.8148148148148" r="3.0864197530864197" fill="black" />
<circle cx="208.33333333333334" cy="189.8148148148148" r="3.0864197530864197" fill="black" />
<circle cx="236.11111111111111" cy="189.8148148148148" r="3.0864197530864197" fill="black" />





<circle cx="87.96296296296298" cy="199.07407407407408" r="3.0864197530864197" fill="black" />
<circle cx="97.22222222222224" cy="199.07407407407408" r="3.0864197530864197" fill="black" />
<circle cx="106.48148148148148" cy="199.07407407407408" r="3.0864197530864197" fill="black" />
<circle cx="115.74074074074075" cy="199.07407407407408" r="3.0864197530864197" fill="black" />
<circle cx="125.00000000000001" cy="199.07407407407408" r="3.0864197530864197" fill="black" />
<circle cx="143.5185185185185" cy="199.07407407407408" r="3.0864197530864197" fill="black" />
<circle cx="162.03703703703704" cy="199.07407407407408" r="3.0864197530864197" fill="black" />
<circle cx="171.2962962962963" cy="199.07407407407408" r="3.0864197530864197" fill="black" />
<circle cx="180.55555555555557" cy="199.07407407407408" r="3.0864197530864197" fill="black" />
<circle cx="189.8148148148148" cy="199.07407407407408" r="3.0864197530864197" fill="black" />
<circle cx="199.07407407407408" cy="199.07407407407408" r="3.0864197530864197" fill="black" />
<circle cx="208.33333333333334" cy="199.07407407407408" r="3.0864197530864197" fill="black" />
<circle cx="226.85185185185185" cy="199.07407407407408" r="3.0864197530864197" fill="black" />





<circle cx="87.96296296296298" cy="208.33333333333334" r="3.0864197530864197" fill="black" />
<circle cx="115.74074074074075" cy="208.33333333333334" r="3.0864197530864197" fill="black" />
<circle cx="125.00000000000001" cy="208.33333333333334" r="3.0864197530864197" fill="black" />
<circle cx="143.5185185185185" cy="208.33333333333334" r="3.0864197530864197" fill="black" />
<circle cx="171.2962962962963" cy="208.33333333333334" r="3.0864197530864197" fill="black" />
<circle cx="180.55555555555557" cy="208.33333333333334" r="3.0864197530864197" fill="black" />
<circle cx="189.8148148148148" cy="208.33333333333334" r="3.0864197530864197" fill="black" />
<circle cx="208.33333333333334" cy="208.33333333333334" r="3.0864197530864197" fill="black" />
<circle cx="236.11111111111111" cy="208.33333333333334" r="3.0864197530864197" fill="black" />





<circle cx="97.22222222222224" cy="217.59259259259258" r="3.0864197530864197" fill="black" />
<circle cx="115.74074074074075" cy="217.59259259259258" r="3.0864197530864197" fill="black" />
<circle cx="134.25925925925927" cy="217.59259259259258" r="3.0864197530864197" fill="black" />
<circle cx="162.03703703703704" cy="217.59259259259258" r="3.0864197530864197" fill="black" />
<circle cx="171.2962962962963" cy="217.59259259259258" r="3.0864197530864197" fill="black" />
<circle cx="189.8148148148148" cy="217.59259259259258" r="3.0864197530864197" fill="black" />
<circle cx="199.07407407407408" cy="217.59259259259258" r="3.0864197530864197" fill="black" />
<circle cx="217.59259259259258" cy="217.59259259259258" r="3.0864197530864197" fill="black" />
<circle cx="226.85185185185185" cy="217.59259259259258" r="3.0864197530864197" fill="black" />
<circle cx="236.11111111111111" cy="217.59259259259258" r="3.0864197530864197" fill="black" />


<circle cx="134.25925925925927" cy="226.85185185185185" r="3.0864197530864197" fill="black" />
<circle cx="162.03703703703704" cy="226.85185185185185" r="3.0864197530864197" fill="black" />
<circle cx="180.55555555555557" cy="226.85185185185185" r="3.0864197530864197" fill="black" />
<circle cx="189.8148148148148" cy="226.85185185185185" r="3.0864197530864197" fill="black" />
<circle cx="199.07407407407408" cy="226.85185185185185" r="3.0864197530864197" fill="black" />
<circle cx="217.59259259259258" cy="226.85185185185185" r="3.0864197530864197" fill="black" />
<circle cx="226.85185185185185" cy="226.85185185185185" r="3.0864197530864197" fill="black" />
<circle cx="236.11111111111111" cy="226.85185185185185" r="3.0864197530864197" fill="black" />







<circle cx="106.48148148148148" cy="236.11111111111111" r="3.0864197530864197" fill="black" />
<circle cx="125.00000000000001" cy="236.11111111111111" r="3.0864197530864197" fill="black" />
<circle cx="134.25925925925927" cy="236.11111111111111" r="3.0864197530864197" fill="black" />
<circle cx="143.5185185185185" cy="236.11111111111111" r="3.0864197530864197" fill="black" />
<circle cx="152.77777777777777" cy="236.11111111111111" r="3.0864197530864197" fill="black" />
<circle cx="162.03703703703704" cy="236.11111111111111" r="3.0864197530864197" fill="black" />
<circle cx="208.33333333333334" cy="236.11111111111111" r="3.0864197530864197" fill="black" />
<circle cx="236.11111111111111" cy="236.11111111111111" r="3.0864197530864197" fill="black" />
<rect x="194.44444444444446" y="27.777777777777782" rx="4.62962962962963" width="27.77777777777778" height="27.77777777777778" fill="black"/>
<rect x="27.777777777777782" y="27.777777777777782" rx="4.62962962962963" width="27.77777777777778" height="27.77777777777778" fill="black"/>
<rect x="27.777777777777782" y="194.44444444444446" rx="4.62962962962963" width="27.77777777777778" height="27.77777777777778" fill="black"/>
<path fill="black" d="M 180.55555555555554 9.259259259259267
    h 55.55555555555555 q 4.629629629629629 0 4.629629629629629 4.629629629629629
                                v 55.55555555555555 q 0 4.629629629629629 -4.629629629629629 4.629629629629629
                                h -55.55555555555555 q -4.629629629629629 0 -4.629629629629629 -4.629629629629629
                                v -55.55555555555555 q 0 -4.629629629629629 4.629629629629629 -4.629629629629629 l 9.259259259259258 9.259259259259258 
    q -4.629629629629629 0 -4.629629629629629 4.629629629629629 v 37.03703703703703
                                 q 0 4.629629629629629 4.629629629629629 4.629629629629629 h 37.03703703703703
                                 q 4.629629629629629 0 4.629629629629629 -4.629629629629629 v -37.03703703703703
                                 q 0 -4.629629629629629 -4.629629629629629 -4.629629629629629 h -37.03703703703703 l -9.259259259259258 -9.259259259259258" />
<path fill="black" d="M 13.888888888888896 9.259259259259267
    h 55.55555555555555 q 4.629629629629629 0 4.629629629629629 4.629629629629629
                                v 55.55555555555555 q 0 4.629629629629629 -4.629629629629629 4.629629629629629
                                h -55.55555555555555 q -4.629629629629629 0 -4.629629629629629 -4.629629629629629
                                v -55.55555555555555 q 0 -4.629629629629629 4.629629629629629 -4.629629629629629 l 9.259259259259258 9.259259259259258 
    q -4.629629629629629 0 -4.629629629629629 4.629629629629629 v 37.03703703703703
                                 q 0 4.629629629629629 4.629629629629629 4.629629629629629 h 37.03703703703703
                                 q 4.629629629629629 0 4.629629629629629 -4.629629629629629 v -37.03703703703703
                                 q 0 -4.629629629629629 -4.629629629629629 -4.629629629629629 h -37.03703703703703 l -9.259259259259258 -9.259259259259258" />
<path fill="black" d="M 13.888888888888896 175.92592592592592
    h 55.55555555555555 q 4.629629629629629 0 4.629629629629629 4.629629629629629
                                v 55.55555555555555 q 0 4.629629629629629 -4.629629629629629 4.629629629629629
                                h -55.55555555555555 q -4.629629629629629 0 -4.629629629629629 -4.629629629629629
                                v -55.55555555555555 q 0 -4.629629629629629 4.629629629629629 -4.629629629629629 l 9.259259259259258 9.259259259259258 
    q -4.629629629629629 0 -4.629629629629629 4.629629629629629 v 37.03703703703703
                                 q 0 4.629629629629629 4.629629629629629 4.629629629629629 h 37.03703703703703
                                 q 4.629629629629629 0 4.629629629629629 -4.629629629629629 v -37.03703703703703
                                 q 0 -4.629629629629629 -4.629629629629629 -4.629629629629629 h -37.03703703703703 l -9.259259259259258 -9.259259259259258" />
    </clipPath>
    <linearGradient id="gradz12z894" x1="1" y1="0" x2="0" y2="0">
        <stop offset="0" stop-color="#7611b6" stop-opacity="1" />
        <stop offset="1" stop-color="#ad50ff" stop-opacity="1" />
      </linearGradient>
    <rect fill="url(#gradz12z894)" clip-path="url(#clipz12z894)" x="0" y="0" height="250" width="250" />
  
    
    </svg>