<svg width="142" height="16" viewBox="0 0 142 16" fill="none" xmlns="http://www.w3.org/2000/svg">
<path d="M8.78 1.84C7.56667 1.37333 6.42 1.14 5.34 1.14C4.27333 1.14 3.44 1.36667 2.84 1.82C2.24 2.27333 1.94 2.9 1.94 3.7C1.94 4.67333 2.44667 5.42667 3.46 5.96C3.91333 6.18667 4.40667 6.4 4.94 6.6C5.48667 6.78667 6.03333 7 6.58 7.24C7.12667 7.48 7.62667 7.75333 8.08 8.06C8.53333 8.36667 8.9 8.79333 9.18 9.34C9.46 9.87333 9.6 10.56 9.6 11.4C9.6 12.2267 9.36667 12.9333 8.9 13.52C8.43333 14.1067 7.86667 14.5067 7.2 14.72C6.54667 14.92 5.78 15.02 4.9 15.02C3.26 15.02 1.86 14.6133 0.7 13.8L0.8 13.64C1.24 13.9867 1.80667 14.2733 2.5 14.5C3.20667 14.7133 3.92667 14.82 4.66 14.82C5.74 14.82 6.66 14.5733 7.42 14.08C8.19333 13.5733 8.58 12.8333 8.58 11.86C8.58 10.7933 8.07333 9.96 7.06 9.36C6.60667 9.09333 6.10667 8.84667 5.56 8.62C5.02667 8.39333 4.48667 8.16 3.94 7.92C3.39333 7.66667 2.89333 7.38667 2.44 7.08C1.42667 6.41333 0.92 5.46667 0.92 4.24C0.92 3.26667 1.24667 2.48 1.9 1.88C2.55333 1.26667 3.53333 0.96 4.84 0.96C6.16 0.96 7.5 1.18667 8.86 1.64L8.78 1.84ZM21.313 0.999999H21.573V9C21.573 11.0933 21.1596 12.6333 20.333 13.62C19.5063 14.5933 18.4263 15.08 17.093 15.08C16.253 15.08 15.5396 15.0067 14.953 14.86C14.3663 14.7 13.813 14.4133 13.293 14C12.2263 13.1733 11.693 11.5067 11.693 9V0.999999H13.353V8.98C13.353 11.4067 13.7196 13.0267 14.453 13.84C14.8263 14.24 15.213 14.5133 15.613 14.66C16.0263 14.8067 16.5196 14.88 17.093 14.88C18.373 14.88 19.393 14.4133 20.153 13.48C20.9263 12.5333 21.313 11.0333 21.313 8.98V0.999999ZM24.0911 1.2V0.999999H32.2511V1.2L25.1911 14.8H31.2111C31.5978 14.8 31.9511 14.7333 32.2711 14.6C32.5911 14.4667 32.8044 14.2733 32.9111 14.02L33.0711 14.1C33.0444 14.1667 32.9978 14.2533 32.9311 14.36C32.8778 14.4533 32.6978 14.5867 32.3911 14.76C32.0844 14.92 31.7111 15 31.2711 15H23.5711V14.8L30.5911 1.2H24.0911ZM34.6095 15H34.3695L40.3495 0.999999L40.5695 0.899999L45.6095 15H43.9095L42.3495 10.6H36.5095L34.6095 15ZM39.7295 3.16L36.5895 10.4H42.2895L39.7295 3.16ZM47.5756 15H47.3156V0.999999H47.9956L56.3156 13.94V0.999999H56.5756V15H55.1156L47.5756 3.4V15ZM67.2311 0.999999V1.2H60.9311V7.2H66.7711V7.4H60.9311V14.8H67.6711V15H59.2711V0.999999H67.2311ZM83.1355 1.84C81.9221 1.37333 80.7755 1.14 79.6955 1.14C78.6288 1.14 77.7955 1.36667 77.1955 1.82C76.5955 2.27333 76.2955 2.9 76.2955 3.7C76.2955 4.67333 76.8021 5.42667 77.8155 5.96C78.2688 6.18667 78.7621 6.4 79.2955 6.6C79.8421 6.78667 80.3888 7 80.9355 7.24C81.4821 7.48 81.9821 7.75333 82.4355 8.06C82.8888 8.36667 83.2555 8.79333 83.5355 9.34C83.8155 9.87333 83.9555 10.56 83.9555 11.4C83.9555 12.2267 83.7221 12.9333 83.2555 13.52C82.7888 14.1067 82.2221 14.5067 81.5555 14.72C80.9021 14.92 80.1355 15.02 79.2555 15.02C77.6155 15.02 76.2155 14.6133 75.0555 13.8L75.1555 13.64C75.5955 13.9867 76.1621 14.2733 76.8555 14.5C77.5621 14.7133 78.2821 14.82 79.0155 14.82C80.0955 14.82 81.0155 14.5733 81.7755 14.08C82.5488 13.5733 82.9355 12.8333 82.9355 11.86C82.9355 10.7933 82.4288 9.96 81.4155 9.36C80.9621 9.09333 80.4621 8.84667 79.9155 8.62C79.3821 8.39333 78.8421 8.16 78.2955 7.92C77.7488 7.66667 77.2488 7.38667 76.7955 7.08C75.7821 6.41333 75.2755 5.46667 75.2755 4.24C75.2755 3.26667 75.6021 2.48 76.2555 1.88C76.9088 1.26667 77.8888 0.96 79.1955 0.96C80.5155 0.96 81.8555 1.18667 83.2155 1.64L83.1355 1.84ZM85.4884 15H85.2484L91.2284 0.999999L91.4484 0.899999L96.4884 15H94.7884L93.2284 10.6H87.3884L85.4884 15ZM90.6084 3.16L87.4684 10.4H93.1684L90.6084 3.16ZM98.4545 15H98.1945V0.999999H98.8745L107.195 13.94V0.999999H107.455V15H105.995L98.4545 3.4V15ZM114.47 15H112.81V1.2H109.35V0.999999H117.95V1.2H114.47V15ZM118.363 8.34C118.363 5.91333 118.95 4.07333 120.123 2.82C121.31 1.55333 122.83 0.919999 124.683 0.919999C126.537 0.919999 128.01 1.46667 129.103 2.56C130.21 3.65333 130.763 5.4 130.763 7.8C130.763 10.2 130.177 12.0133 129.003 13.24C127.83 14.4667 126.263 15.08 124.303 15.08C122.61 15.08 121.223 14.5933 120.143 13.62C119.583 13.1133 119.143 12.4133 118.823 11.52C118.517 10.6133 118.363 9.55333 118.363 8.34ZM124.623 1.12C123.277 1.12 122.17 1.72 121.303 2.92C120.45 4.12 120.023 5.88 120.023 8.2C120.023 10.52 120.43 12.2133 121.243 13.28C122.057 14.3467 123.137 14.88 124.483 14.88C125.843 14.88 126.95 14.28 127.803 13.08C128.67 11.8667 129.103 10.1133 129.103 7.82C129.103 5.51333 128.69 3.82 127.863 2.74C127.05 1.66 125.97 1.12 124.623 1.12ZM140.538 1.84C139.324 1.37333 138.178 1.14 137.098 1.14C136.031 1.14 135.198 1.36667 134.598 1.82C133.998 2.27333 133.698 2.9 133.698 3.7C133.698 4.67333 134.204 5.42667 135.218 5.96C135.671 6.18667 136.164 6.4 136.698 6.6C137.244 6.78667 137.791 7 138.338 7.24C138.884 7.48 139.384 7.75333 139.838 8.06C140.291 8.36667 140.658 8.79333 140.938 9.34C141.218 9.87333 141.358 10.56 141.358 11.4C141.358 12.2267 141.124 12.9333 140.658 13.52C140.191 14.1067 139.624 14.5067 138.958 14.72C138.304 14.92 137.538 15.02 136.658 15.02C135.018 15.02 133.618 14.6133 132.458 13.8L132.558 13.64C132.998 13.9867 133.564 14.2733 134.258 14.5C134.964 14.7133 135.684 14.82 136.418 14.82C137.498 14.82 138.418 14.5733 139.178 14.08C139.951 13.5733 140.338 12.8333 140.338 11.86C140.338 10.7933 139.831 9.96 138.818 9.36C138.364 9.09333 137.864 8.84667 137.318 8.62C136.784 8.39333 136.244 8.16 135.698 7.92C135.151 7.66667 134.651 7.38667 134.198 7.08C133.184 6.41333 132.678 5.46667 132.678 4.24C132.678 3.26667 133.004 2.48 133.658 1.88C134.311 1.26667 135.291 0.96 136.598 0.96C137.918 0.96 139.258 1.18667 140.618 1.64L140.538 1.84Z" fill="white"/>
</svg>
