<svg width="212" height="23" viewBox="0 0 212 23" fill="none" xmlns="http://www.w3.org/2000/svg">
<path d="M12.17 2.26C10.35 1.56 8.63 1.21 7.01 1.21C5.41 1.21 4.16 1.55 3.26 2.23C2.36 2.91 1.91 3.85 1.91 5.05C1.91 6.51 2.67 7.64 4.19 8.44C4.87 8.78 5.61 9.1 6.41 9.4C7.23 9.68 8.05 10 8.87 10.36C9.69 10.72 10.44 11.13 11.12 11.59C11.8 12.05 12.35 12.69 12.77 13.51C13.19 14.31 13.4 15.34 13.4 16.6C13.4 17.84 13.05 18.9 12.35 19.78C11.65 20.66 10.8 21.26 9.8 21.58C8.82 21.88 7.67 22.03 6.35 22.03C3.89 22.03 1.79 21.42 0.05 20.2L0.2 19.96C0.86 20.48 1.71 20.91 2.75 21.25C3.81 21.57 4.89 21.73 5.99 21.73C7.61 21.73 8.99 21.36 10.13 20.62C11.29 19.86 11.87 18.75 11.87 17.29C11.87 15.69 11.11 14.44 9.59 13.54C8.91 13.14 8.16 12.77 7.34 12.43C6.54 12.09 5.73 11.74 4.91 11.38C4.09 11 3.34 10.58 2.66 10.12C1.14 9.12 0.38 7.7 0.38 5.86C0.38 4.4 0.87 3.22 1.85 2.32C2.83 1.4 4.3 0.939999 6.26 0.939999C8.24 0.939999 10.25 1.28 12.29 1.96L12.17 2.26ZM30.9695 0.999999H31.3595V13C31.3595 16.14 30.7395 18.45 29.4995 19.93C28.2595 21.39 26.6395 22.12 24.6395 22.12C23.3795 22.12 22.3095 22.01 21.4295 21.79C20.5495 21.55 19.7195 21.12 18.9395 20.5C17.3395 19.26 16.5395 16.76 16.5395 13V0.999999H19.0295V12.97C19.0295 16.61 19.5795 19.04 20.6795 20.26C21.2395 20.86 21.8195 21.27 22.4195 21.49C23.0395 21.71 23.7795 21.82 24.6395 21.82C26.5595 21.82 28.0895 21.12 29.2295 19.72C30.3895 18.3 30.9695 16.05 30.9695 12.97V0.999999ZM35.1366 1.3V0.999999H47.3766V1.3L36.7866 21.7H45.8166C46.3966 21.7 46.9266 21.6 47.4066 21.4C47.8866 21.2 48.2066 20.91 48.3666 20.53L48.6066 20.65C48.5666 20.75 48.4966 20.88 48.3966 21.04C48.3166 21.18 48.0466 21.38 47.5866 21.64C47.1266 21.88 46.5666 22 45.9066 22H34.3566V21.7L44.8866 1.3H35.1366ZM50.9143 22H50.5543L59.5243 0.999999L59.8543 0.849999L67.4143 22H64.8643L62.5243 15.4H53.7643L50.9143 22ZM58.5943 4.24L53.8843 15.1H62.4343L58.5943 4.24ZM70.3634 22H69.9734V0.999999H70.9934L83.4734 20.41V0.999999H83.8634V22H81.6734L70.3634 4.6V22ZM99.8466 0.999999V1.3H90.3966V10.3H99.1566V10.6H90.3966V21.7H100.507V22H87.9066V0.999999H99.8466ZM123.703 2.26C121.883 1.56 120.163 1.21 118.543 1.21C116.943 1.21 115.693 1.55 114.793 2.23C113.893 2.91 113.443 3.85 113.443 5.05C113.443 6.51 114.203 7.64 115.723 8.44C116.403 8.78 117.143 9.1 117.943 9.4C118.763 9.68 119.583 10 120.403 10.36C121.223 10.72 121.973 11.13 122.653 11.59C123.333 12.05 123.883 12.69 124.303 13.51C124.723 14.31 124.933 15.34 124.933 16.6C124.933 17.84 124.583 18.9 123.883 19.78C123.183 20.66 122.333 21.26 121.333 21.58C120.353 21.88 119.203 22.03 117.883 22.03C115.423 22.03 113.323 21.42 111.583 20.2L111.733 19.96C112.393 20.48 113.243 20.91 114.283 21.25C115.343 21.57 116.423 21.73 117.523 21.73C119.143 21.73 120.523 21.36 121.663 20.62C122.823 19.86 123.403 18.75 123.403 17.29C123.403 15.69 122.643 14.44 121.123 13.54C120.443 13.14 119.693 12.77 118.873 12.43C118.073 12.09 117.263 11.74 116.443 11.38C115.623 11 114.873 10.58 114.193 10.12C112.673 9.12 111.913 7.7 111.913 5.86C111.913 4.4 112.403 3.22 113.383 2.32C114.363 1.4 115.833 0.939999 117.793 0.939999C119.773 0.939999 121.783 1.28 123.823 1.96L123.703 2.26ZM127.233 22H126.873L135.843 0.999999L136.173 0.849999L143.733 22H141.183L138.843 15.4H130.083L127.233 22ZM134.913 4.24L130.203 15.1H138.753L134.913 4.24ZM146.682 22H146.292V0.999999H147.312L159.792 20.41V0.999999H160.182V22H157.992L146.682 4.6V22ZM170.705 22H168.215V1.3H163.025V0.999999H175.925V1.3H170.705V22ZM176.545 12.01C176.545 8.37 177.425 5.61 179.185 3.73C180.965 1.83 183.245 0.879998 186.025 0.879998C188.805 0.879998 191.015 1.7 192.655 3.34C194.315 4.98 195.145 7.6 195.145 11.2C195.145 14.8 194.265 17.52 192.505 19.36C190.745 21.2 188.395 22.12 185.455 22.12C182.915 22.12 180.835 21.39 179.215 19.93C178.375 19.17 177.715 18.12 177.235 16.78C176.775 15.42 176.545 13.83 176.545 12.01ZM185.935 1.18C183.915 1.18 182.255 2.08 180.955 3.88C179.675 5.68 179.035 8.32 179.035 11.8C179.035 15.28 179.645 17.82 180.865 19.42C182.085 21.02 183.705 21.82 185.725 21.82C187.765 21.82 189.425 20.92 190.705 19.12C192.005 17.3 192.655 14.67 192.655 11.23C192.655 7.77 192.035 5.23 190.795 3.61C189.575 1.99 187.955 1.18 185.935 1.18ZM209.807 2.26C207.987 1.56 206.267 1.21 204.647 1.21C203.047 1.21 201.797 1.55 200.897 2.23C199.997 2.91 199.547 3.85 199.547 5.05C199.547 6.51 200.307 7.64 201.827 8.44C202.507 8.78 203.247 9.1 204.047 9.4C204.867 9.68 205.687 10 206.507 10.36C207.327 10.72 208.077 11.13 208.757 11.59C209.437 12.05 209.987 12.69 210.407 13.51C210.827 14.31 211.037 15.34 211.037 16.6C211.037 17.84 210.687 18.9 209.987 19.78C209.287 20.66 208.437 21.26 207.437 21.58C206.457 21.88 205.307 22.03 203.987 22.03C201.527 22.03 199.427 21.42 197.687 20.2L197.837 19.96C198.497 20.48 199.347 20.91 200.387 21.25C201.447 21.57 202.527 21.73 203.627 21.73C205.247 21.73 206.627 21.36 207.767 20.62C208.927 19.86 209.507 18.75 209.507 17.29C209.507 15.69 208.747 14.44 207.227 13.54C206.547 13.14 205.797 12.77 204.977 12.43C204.177 12.09 203.367 11.74 202.547 11.38C201.727 11 200.977 10.58 200.297 10.12C198.777 9.12 198.017 7.7 198.017 5.86C198.017 4.4 198.507 3.22 199.487 2.32C200.467 1.4 201.937 0.939999 203.897 0.939999C205.877 0.939999 207.887 1.28 209.927 1.96L209.807 2.26Z" fill="#2A3B47"/>
</svg>
